<svg width="2" height="3" viewBox="0 0 2 3" fill="none" xmlns="http://www.w3.org/2000/svg">
<path d="M0.625 1.68453C0.648125 1.945 0.861406 2.12984 1.18609 2.15375V2.34375H1.34906V2.15375C1.70375 2.12578 1.92375 1.92906 1.92375 1.63813C1.92375 1.38969 1.77578 1.24594 1.46187 1.165L1.34906 1.13578V0.541719C1.52437 0.558906 1.64266 0.653281 1.6725 0.794219H1.90219C1.87625 0.544219 1.66156 0.364844 1.34906 0.345V0.15625H1.18609V0.348906C0.883125 0.384844 0.675156 0.578906 0.675156 0.842031C0.675156 1.06922 0.826094 1.23 1.09094 1.29781L1.18625 1.32313V1.95297C1.00672 1.92641 0.883125 1.82797 0.853281 1.68453H0.625V1.68453ZM1.15484 1.08516C0.991875 1.04406 0.904844 0.95625 0.904844 0.832656C0.904844 0.685156 1.01484 0.57625 1.18609 0.547031V1.09312L1.15484 1.08531V1.08516ZM1.40344 1.37766C1.60453 1.42813 1.69281 1.51188 1.69281 1.65406C1.69281 1.82547 1.56375 1.93969 1.34906 1.95703V1.36406L1.40344 1.3775V1.37766Z" fill="white"/>
</svg>
